<svg width="1611" height="561" viewBox="0 0 1611 561" fill="none" xmlns="http://www.w3.org/2000/svg">
<g clip-path="url(#clip0_1_51)">
<rect width="1611" height="561" fill="#352B2B"/>
<g filter="url(#filter0_d_1_51)">
<path d="M330.375 8.91663H395.875L439.76 128.311C441.257 132.416 445.359 136.104 451.346 138.728C457.333 141.353 464.825 142.747 472.51 142.667H631.675C639.36 142.747 646.852 141.353 652.839 138.728C658.826 136.104 662.928 132.416 664.425 128.311L690.625 53.5H412.25M477.75 187.25C477.75 192.175 470.419 196.167 461.375 196.167C452.331 196.167 445 192.175 445 187.25C445 182.325 452.331 178.333 461.375 178.333C470.419 178.333 477.75 182.325 477.75 187.25ZM657.875 187.25C657.875 192.175 650.544 196.167 641.5 196.167C632.456 196.167 625.125 192.175 625.125 187.25C625.125 182.325 632.456 178.333 641.5 178.333C650.544 178.333 657.875 182.325 657.875 187.25Z" stroke="white" stroke-width="4" stroke-linecap="round" stroke-linejoin="round"/>
</g>
<g filter="url(#filter1_d_1_51)">
<rect x="1349" y="181" width="166" height="235" rx="50" fill="#3ABD3A"/>
<rect x="1349.5" y="181.5" width="165" height="234" rx="49.5" stroke="black"/>
<path d="M1432 190.792V406.208M1466.58 229.958H1414.71C1408.29 229.958 1402.13 233.569 1397.59 239.996C1393.05 246.423 1390.5 255.14 1390.5 264.229C1390.5 273.318 1393.05 282.035 1397.59 288.462C1402.13 294.889 1408.29 298.5 1414.71 298.5H1449.29C1455.71 298.5 1461.87 302.111 1466.41 308.538C1470.95 314.965 1473.5 323.682 1473.5 332.771C1473.5 341.86 1470.95 350.577 1466.41 357.004C1461.87 363.431 1455.71 367.042 1449.29 367.042H1390.5" stroke="white" stroke-width="4" stroke-linecap="round" stroke-linejoin="round"/>
</g>
<mask id="path-5-outside-1_1_51" maskUnits="userSpaceOnUse" x="134" y="126" width="1192" height="363" fill="black">
<rect fill="white" x="134" y="126" width="1192" height="363"/>
<path d="M250.728 371C259.661 371 266.928 369.867 272.528 367.6C278.261 365.333 282.728 362.4 285.928 358.8C289.128 355.2 291.328 351.133 292.528 346.6C293.728 342.067 294.328 337.467 294.328 332.8C294.328 327.467 293.595 322.667 292.128 318.4C290.795 314.133 288.395 310.533 284.928 307.6C281.595 304.667 277.128 302.4 271.528 300.8C265.928 299.2 258.861 298.4 250.328 298.4H203.128V371H250.728ZM203.128 181.2V253.2H238.328C245.795 253.2 252.528 252.667 258.528 251.6C264.528 250.533 269.595 248.667 273.728 246C277.995 243.333 281.195 239.667 283.328 235C285.595 230.333 286.728 224.467 286.728 217.4C286.728 210.467 285.861 204.733 284.128 200.2C282.395 195.533 279.728 191.8 276.128 189C272.528 186.2 267.928 184.2 262.328 183C256.861 181.8 250.328 181.2 242.728 181.2H203.128ZM242.728 130.6C262.861 130.6 279.995 132.467 294.128 136.2C308.261 139.933 319.795 145.2 328.728 152C337.661 158.8 344.128 167.067 348.128 176.8C352.261 186.533 354.328 197.4 354.328 209.4C354.328 215.933 353.395 222.267 351.528 228.4C349.661 234.4 346.728 240.067 342.728 245.4C338.728 250.6 333.595 255.4 327.328 259.8C321.061 264.2 313.528 268 304.728 271.2C323.928 275.867 338.128 283.4 347.328 293.8C356.528 304.2 361.128 317.667 361.128 334.2C361.128 346.6 358.728 358.133 353.928 368.8C349.128 379.467 342.061 388.8 332.728 396.8C323.528 404.667 312.128 410.867 298.528 415.4C284.928 419.8 269.395 422 251.928 422H135.528V130.6H242.728ZM579.172 214.6V422H540.772C533.039 422 527.972 418.533 525.572 411.6L521.972 399.6C517.972 403.467 513.839 407 509.572 410.2C505.305 413.267 500.705 415.933 495.772 418.2C490.972 420.333 485.705 422 479.972 423.2C474.372 424.533 468.239 425.2 461.572 425.2C450.239 425.2 440.172 423.267 431.372 419.4C422.705 415.4 415.372 409.867 409.372 402.8C403.372 395.733 398.839 387.4 395.772 377.8C392.705 368.2 391.172 357.667 391.172 346.2V214.6H453.172V346.2C453.172 356.467 455.505 364.4 460.172 370C464.839 375.6 471.705 378.4 480.772 378.4C487.572 378.4 493.905 377 499.772 374.2C505.772 371.267 511.572 367.333 517.172 362.4V214.6H579.172ZM818.297 214.6L707.497 475.8C705.63 479.933 703.364 482.933 700.697 484.8C698.03 486.8 693.764 487.8 687.897 487.8H641.497L681.497 403.8L598.697 214.6H653.497C658.297 214.6 661.964 215.667 664.497 217.8C667.164 219.933 669.097 222.467 670.297 225.4L704.297 314.8C707.497 322.933 710.097 331.267 712.097 339.8C713.564 335.533 715.03 331.267 716.497 327C717.964 322.733 719.497 318.533 721.097 314.4L751.897 225.4C753.097 222.333 755.23 219.8 758.297 217.8C761.364 215.667 764.697 214.6 768.297 214.6H818.297ZM983.731 271H1087.33V394C1072.4 404.933 1056.46 412.867 1039.53 417.8C1022.73 422.733 1005.13 425.2 986.731 425.2C962.731 425.2 940.865 421.467 921.131 414C901.531 406.4 884.731 396 870.731 382.8C856.731 369.467 845.931 353.733 838.331 335.6C830.731 317.333 826.931 297.533 826.931 276.2C826.931 254.467 830.531 234.533 837.731 216.4C844.931 198.133 855.198 182.4 868.531 169.2C881.998 156 898.198 145.733 917.131 138.4C936.198 131.067 957.465 127.4 980.931 127.4C993.065 127.4 1004.46 128.4 1015.13 130.4C1025.8 132.4 1035.6 135.133 1044.53 138.6C1053.6 142.067 1061.86 146.2 1069.33 151C1076.8 155.8 1083.46 161 1089.33 166.6L1069.73 196.4C1066.66 201.067 1062.66 203.933 1057.73 205C1052.93 206.067 1047.73 204.867 1042.13 201.4C1036.8 198.2 1031.73 195.467 1026.93 193.2C1022.26 190.8 1017.46 188.867 1012.53 187.4C1007.6 185.933 1002.4 184.867 996.931 184.2C991.465 183.533 985.331 183.2 978.531 183.2C965.865 183.2 954.465 185.467 944.331 190C934.198 194.4 925.531 200.667 918.331 208.8C911.265 216.933 905.798 226.733 901.931 238.2C898.065 249.533 896.131 262.2 896.131 276.2C896.131 291.667 898.265 305.4 902.531 317.4C906.798 329.4 912.798 339.533 920.531 347.8C928.398 356.067 937.731 362.4 948.531 366.8C959.465 371.067 971.531 373.2 984.731 373.2C992.865 373.2 1000.2 372.4 1006.73 370.8C1013.4 369.2 1019.86 367.067 1026.13 364.4V320.2H997.331C993.065 320.2 989.731 319.067 987.331 316.8C984.931 314.533 983.731 311.667 983.731 308.2V271ZM1218.85 211.4C1234.58 211.4 1248.92 213.867 1261.85 218.8C1274.78 223.733 1285.85 230.8 1295.05 240C1304.38 249.2 1311.58 260.4 1316.65 273.6C1321.85 286.667 1324.45 301.4 1324.45 317.8C1324.45 334.333 1321.85 349.267 1316.65 362.6C1311.58 375.8 1304.38 387.067 1295.05 396.4C1285.85 405.6 1274.78 412.733 1261.85 417.8C1248.92 422.733 1234.58 425.2 1218.85 425.2C1202.98 425.2 1188.52 422.733 1175.45 417.8C1162.52 412.733 1151.32 405.6 1141.85 396.4C1132.52 387.067 1125.25 375.8 1120.05 362.6C1114.98 349.267 1112.45 334.333 1112.45 317.8C1112.45 301.4 1114.98 286.667 1120.05 273.6C1125.25 260.4 1132.52 249.2 1141.85 240C1151.32 230.8 1162.52 223.733 1175.45 218.8C1188.52 213.867 1202.98 211.4 1218.85 211.4ZM1218.85 379.2C1233.12 379.2 1243.58 374.2 1250.25 364.2C1257.05 354.067 1260.45 338.733 1260.45 318.2C1260.45 297.667 1257.05 282.4 1250.25 272.4C1243.58 262.4 1233.12 257.4 1218.85 257.4C1204.18 257.4 1193.45 262.4 1186.65 272.4C1179.85 282.4 1176.45 297.667 1176.45 318.2C1176.45 338.733 1179.85 354.067 1186.65 364.2C1193.45 374.2 1204.18 379.2 1218.85 379.2Z"/>
</mask>
<path d="M250.728 371C259.661 371 266.928 369.867 272.528 367.6C278.261 365.333 282.728 362.4 285.928 358.8C289.128 355.2 291.328 351.133 292.528 346.6C293.728 342.067 294.328 337.467 294.328 332.8C294.328 327.467 293.595 322.667 292.128 318.4C290.795 314.133 288.395 310.533 284.928 307.6C281.595 304.667 277.128 302.4 271.528 300.8C265.928 299.2 258.861 298.4 250.328 298.4H203.128V371H250.728ZM203.128 181.2V253.2H238.328C245.795 253.2 252.528 252.667 258.528 251.6C264.528 250.533 269.595 248.667 273.728 246C277.995 243.333 281.195 239.667 283.328 235C285.595 230.333 286.728 224.467 286.728 217.4C286.728 210.467 285.861 204.733 284.128 200.2C282.395 195.533 279.728 191.8 276.128 189C272.528 186.2 267.928 184.2 262.328 183C256.861 181.8 250.328 181.2 242.728 181.2H203.128ZM242.728 130.6C262.861 130.6 279.995 132.467 294.128 136.2C308.261 139.933 319.795 145.2 328.728 152C337.661 158.8 344.128 167.067 348.128 176.8C352.261 186.533 354.328 197.4 354.328 209.4C354.328 215.933 353.395 222.267 351.528 228.4C349.661 234.4 346.728 240.067 342.728 245.4C338.728 250.6 333.595 255.4 327.328 259.8C321.061 264.2 313.528 268 304.728 271.2C323.928 275.867 338.128 283.4 347.328 293.8C356.528 304.2 361.128 317.667 361.128 334.2C361.128 346.6 358.728 358.133 353.928 368.8C349.128 379.467 342.061 388.8 332.728 396.8C323.528 404.667 312.128 410.867 298.528 415.4C284.928 419.8 269.395 422 251.928 422H135.528V130.6H242.728ZM579.172 214.6V422H540.772C533.039 422 527.972 418.533 525.572 411.6L521.972 399.6C517.972 403.467 513.839 407 509.572 410.2C505.305 413.267 500.705 415.933 495.772 418.2C490.972 420.333 485.705 422 479.972 423.2C474.372 424.533 468.239 425.2 461.572 425.2C450.239 425.2 440.172 423.267 431.372 419.4C422.705 415.4 415.372 409.867 409.372 402.8C403.372 395.733 398.839 387.4 395.772 377.8C392.705 368.2 391.172 357.667 391.172 346.2V214.6H453.172V346.2C453.172 356.467 455.505 364.4 460.172 370C464.839 375.6 471.705 378.4 480.772 378.4C487.572 378.4 493.905 377 499.772 374.2C505.772 371.267 511.572 367.333 517.172 362.4V214.6H579.172ZM818.297 214.6L707.497 475.8C705.63 479.933 703.364 482.933 700.697 484.8C698.03 486.8 693.764 487.8 687.897 487.8H641.497L681.497 403.8L598.697 214.6H653.497C658.297 214.6 661.964 215.667 664.497 217.8C667.164 219.933 669.097 222.467 670.297 225.4L704.297 314.8C707.497 322.933 710.097 331.267 712.097 339.8C713.564 335.533 715.03 331.267 716.497 327C717.964 322.733 719.497 318.533 721.097 314.4L751.897 225.4C753.097 222.333 755.23 219.8 758.297 217.8C761.364 215.667 764.697 214.6 768.297 214.6H818.297ZM983.731 271H1087.33V394C1072.4 404.933 1056.46 412.867 1039.53 417.8C1022.73 422.733 1005.13 425.2 986.731 425.2C962.731 425.2 940.865 421.467 921.131 414C901.531 406.4 884.731 396 870.731 382.8C856.731 369.467 845.931 353.733 838.331 335.6C830.731 317.333 826.931 297.533 826.931 276.2C826.931 254.467 830.531 234.533 837.731 216.4C844.931 198.133 855.198 182.4 868.531 169.2C881.998 156 898.198 145.733 917.131 138.4C936.198 131.067 957.465 127.4 980.931 127.4C993.065 127.4 1004.46 128.4 1015.13 130.4C1025.8 132.4 1035.6 135.133 1044.53 138.6C1053.6 142.067 1061.86 146.2 1069.33 151C1076.8 155.8 1083.46 161 1089.33 166.6L1069.73 196.4C1066.66 201.067 1062.66 203.933 1057.73 205C1052.93 206.067 1047.73 204.867 1042.13 201.4C1036.8 198.2 1031.73 195.467 1026.93 193.2C1022.26 190.8 1017.46 188.867 1012.53 187.4C1007.6 185.933 1002.4 184.867 996.931 184.2C991.465 183.533 985.331 183.2 978.531 183.2C965.865 183.2 954.465 185.467 944.331 190C934.198 194.4 925.531 200.667 918.331 208.8C911.265 216.933 905.798 226.733 901.931 238.2C898.065 249.533 896.131 262.2 896.131 276.2C896.131 291.667 898.265 305.4 902.531 317.4C906.798 329.4 912.798 339.533 920.531 347.8C928.398 356.067 937.731 362.4 948.531 366.8C959.465 371.067 971.531 373.2 984.731 373.2C992.865 373.2 1000.2 372.4 1006.73 370.8C1013.4 369.2 1019.86 367.067 1026.13 364.4V320.2H997.331C993.065 320.2 989.731 319.067 987.331 316.8C984.931 314.533 983.731 311.667 983.731 308.2V271ZM1218.85 211.4C1234.58 211.4 1248.92 213.867 1261.85 218.8C1274.78 223.733 1285.85 230.8 1295.05 240C1304.38 249.2 1311.58 260.4 1316.65 273.6C1321.85 286.667 1324.45 301.4 1324.45 317.8C1324.45 334.333 1321.85 349.267 1316.65 362.6C1311.58 375.8 1304.38 387.067 1295.05 396.4C1285.85 405.6 1274.78 412.733 1261.85 417.8C1248.92 422.733 1234.58 425.2 1218.85 425.2C1202.98 425.2 1188.52 422.733 1175.45 417.8C1162.52 412.733 1151.32 405.6 1141.85 396.4C1132.52 387.067 1125.25 375.8 1120.05 362.6C1114.98 349.267 1112.45 334.333 1112.45 317.8C1112.45 301.4 1114.98 286.667 1120.05 273.6C1125.25 260.4 1132.52 249.2 1141.85 240C1151.32 230.8 1162.52 223.733 1175.45 218.8C1188.52 213.867 1202.98 211.4 1218.85 211.4ZM1218.85 379.2C1233.12 379.2 1243.58 374.2 1250.25 364.2C1257.05 354.067 1260.45 338.733 1260.45 318.2C1260.45 297.667 1257.05 282.4 1250.25 272.4C1243.58 262.4 1233.12 257.4 1218.85 257.4C1204.18 257.4 1193.45 262.4 1186.65 272.4C1179.85 282.4 1176.45 297.667 1176.45 318.2C1176.45 338.733 1179.85 354.067 1186.65 364.2C1193.45 374.2 1204.18 379.2 1218.85 379.2Z" fill="#1C9318"/>
<path d="M272.528 367.6L272.16 366.67L272.153 366.673L272.528 367.6ZM285.928 358.8L286.676 359.464L286.676 359.464L285.928 358.8ZM292.528 346.6L293.495 346.856L293.495 346.856L292.528 346.6ZM292.128 318.4L291.174 318.698L291.178 318.712L291.182 318.725L292.128 318.4ZM284.928 307.6L284.268 308.351L284.275 308.357L284.282 308.363L284.928 307.6ZM271.528 300.8L271.253 301.762L271.253 301.762L271.528 300.8ZM203.128 298.4V297.4H202.128V298.4H203.128ZM203.128 371H202.128V372H203.128V371ZM203.128 181.2V180.2H202.128V181.2H203.128ZM203.128 253.2H202.128V254.2H203.128V253.2ZM258.528 251.6L258.353 250.615L258.353 250.615L258.528 251.6ZM273.728 246L273.198 245.152L273.192 245.156L273.186 245.16L273.728 246ZM283.328 235L282.429 234.563L282.424 234.574L282.419 234.584L283.328 235ZM284.128 200.2L283.191 200.548L283.194 200.557L284.128 200.2ZM262.328 183L262.114 183.977L262.119 183.978L262.328 183ZM294.128 136.2L293.873 137.167L293.873 137.167L294.128 136.2ZM328.728 152L328.122 152.796L328.122 152.796L328.728 152ZM348.128 176.8L347.203 177.18L347.208 177.191L348.128 176.8ZM351.528 228.4L352.483 228.697L352.485 228.691L351.528 228.4ZM342.728 245.4L343.521 246.01L343.528 246L342.728 245.4ZM327.328 259.8L326.753 258.982L326.753 258.982L327.328 259.8ZM304.728 271.2L304.386 270.26L301.278 271.391L304.492 272.172L304.728 271.2ZM347.328 293.8L346.579 294.463L347.328 293.8ZM353.928 368.8L354.84 369.21L354.84 369.21L353.928 368.8ZM332.728 396.8L333.378 397.56L333.379 397.559L332.728 396.8ZM298.528 415.4L298.836 416.351L298.844 416.349L298.528 415.4ZM135.528 422H134.528V423H135.528V422ZM135.528 130.6V129.6H134.528V130.6H135.528ZM250.728 372C259.734 372 267.141 370.859 272.903 368.527L272.153 366.673C266.715 368.874 259.589 370 250.728 370V372ZM272.896 368.53C278.735 366.221 283.347 363.21 286.676 359.464L285.181 358.136C282.11 361.59 277.788 364.445 272.16 366.67L272.896 368.53ZM286.676 359.464C289.977 355.751 292.254 351.545 293.495 346.856L291.561 346.344C290.403 350.722 288.28 354.649 285.181 358.136L286.676 359.464ZM293.495 346.856C294.717 342.239 295.328 337.553 295.328 332.8H293.328C293.328 337.38 292.739 341.894 291.561 346.344L293.495 346.856ZM295.328 332.8C295.328 327.376 294.582 322.463 293.074 318.075L291.182 318.725C292.607 322.87 293.328 327.558 293.328 332.8H295.328ZM293.083 318.102C291.692 313.651 289.183 309.89 285.574 306.837L284.282 308.363C287.606 311.176 289.898 314.616 291.174 318.698L293.083 318.102ZM285.589 306.849C282.115 303.792 277.503 301.467 271.803 299.838L271.253 301.762C276.753 303.333 281.075 305.541 284.268 308.351L285.589 306.849ZM271.803 299.838C266.083 298.204 258.915 297.4 250.328 297.4V299.4C258.807 299.4 265.774 300.196 271.253 301.762L271.803 299.838ZM250.328 297.4H203.128V299.4H250.328V297.4ZM202.128 298.4V371H204.128V298.4H202.128ZM203.128 372H250.728V370H203.128V372ZM202.128 181.2V253.2H204.128V181.2H202.128ZM203.128 254.2H238.328V252.2H203.128V254.2ZM238.328 254.2C245.841 254.2 252.634 253.663 258.703 252.585L258.353 250.615C252.422 251.67 245.749 252.2 238.328 252.2V254.2ZM258.703 252.585C264.804 251.5 270.002 249.594 274.27 246.84L273.186 245.16C269.187 247.739 264.253 249.567 258.353 250.615L258.703 252.585ZM274.258 246.848C278.694 244.075 282.025 240.257 284.238 235.416L282.419 234.584C280.365 239.077 277.295 242.591 273.198 245.152L274.258 246.848ZM284.228 235.437C286.58 230.594 287.728 224.566 287.728 217.4H285.728C285.728 224.367 284.61 230.073 282.429 234.563L284.228 235.437ZM287.728 217.4C287.728 210.393 286.853 204.528 285.062 199.843L283.194 200.557C284.869 204.939 285.728 210.541 285.728 217.4H287.728ZM285.066 199.852C283.274 195.027 280.502 191.135 276.742 188.211L275.514 189.789C278.954 192.465 281.516 196.039 283.191 200.548L285.066 199.852ZM276.742 188.211C272.997 185.298 268.248 183.246 262.538 182.022L262.119 183.978C267.608 185.154 272.06 187.102 275.514 189.789L276.742 188.211ZM262.543 182.023C256.986 180.803 250.376 180.2 242.728 180.2V182.2C250.28 182.2 256.737 182.797 262.114 183.977L262.543 182.023ZM242.728 180.2H203.128V182.2H242.728V180.2ZM242.728 131.6C262.805 131.6 279.847 133.462 293.873 137.167L294.384 135.233C280.142 131.471 262.918 129.6 242.728 129.6V131.6ZM293.873 137.167C307.916 140.876 319.32 146.095 328.122 152.796L329.334 151.204C320.27 144.305 308.607 138.99 294.384 135.233L293.873 137.167ZM328.122 152.796C336.924 159.495 343.275 167.622 347.203 177.18L349.053 176.42C344.981 166.511 338.399 158.105 329.334 151.204L328.122 152.796ZM347.208 177.191C351.282 186.785 353.328 197.516 353.328 209.4H355.328C355.328 197.284 353.241 186.282 349.049 176.409L347.208 177.191ZM353.328 209.4C353.328 215.837 352.409 222.072 350.571 228.109L352.485 228.691C354.381 222.462 355.328 216.03 355.328 209.4H353.328ZM350.573 228.103C348.743 233.987 345.864 239.552 341.928 244.8L343.528 246C347.592 240.581 350.58 234.813 352.483 228.697L350.573 228.103ZM341.936 244.79C338.007 249.898 332.951 254.63 326.753 258.982L327.903 260.618C334.239 256.17 339.45 251.302 343.521 246.01L341.936 244.79ZM326.753 258.982C320.573 263.321 313.121 267.084 304.386 270.26L305.07 272.14C313.935 268.916 321.55 265.079 327.903 260.618L326.753 258.982ZM304.492 272.172C323.574 276.81 337.561 284.268 346.579 294.463L348.077 293.137C338.696 282.532 324.282 274.924 304.964 270.228L304.492 272.172ZM346.579 294.463C355.588 304.646 360.128 317.862 360.128 334.2H362.128C362.128 317.472 357.469 303.754 348.077 293.137L346.579 294.463ZM360.128 334.2C360.128 346.467 357.755 357.86 353.016 368.39L354.84 369.21C359.702 358.407 362.128 346.733 362.128 334.2H360.128ZM353.016 368.39C348.28 378.915 341.305 388.131 332.077 396.041L333.379 397.559C342.818 389.469 349.977 380.018 354.84 369.21L353.016 368.39ZM332.078 396.04C322.993 403.809 311.712 409.951 298.212 414.451L298.844 416.349C312.545 411.782 324.064 405.524 333.378 397.56L332.078 396.04ZM298.22 414.449C284.739 418.81 269.313 421 251.928 421V423C269.477 423 285.117 420.79 298.836 416.351L298.22 414.449ZM251.928 421H135.528V423H251.928V421ZM136.528 422V130.6H134.528V422H136.528ZM135.528 131.6H242.728V129.6H135.528V131.6ZM579.172 214.6H580.172V213.6H579.172V214.6ZM579.172 422V423H580.172V422H579.172ZM525.572 411.6L524.614 411.887L524.62 411.907L524.627 411.927L525.572 411.6ZM521.972 399.6L522.93 399.313L522.458 397.739L521.277 398.881L521.972 399.6ZM509.572 410.2L510.156 411.012L510.164 411.006L510.172 411L509.572 410.2ZM495.772 418.2L496.178 419.114L496.189 419.109L495.772 418.2ZM479.972 423.2L479.767 422.221L479.754 422.224L479.74 422.227L479.972 423.2ZM431.372 419.4L430.953 420.308L430.961 420.312L430.97 420.316L431.372 419.4ZM409.372 402.8L408.61 403.447L408.61 403.447L409.372 402.8ZM395.772 377.8L396.724 377.496L396.724 377.496L395.772 377.8ZM391.172 214.6V213.6H390.172V214.6H391.172ZM453.172 214.6H454.172V213.6H453.172V214.6ZM460.172 370L460.94 369.36L460.94 369.36L460.172 370ZM499.772 374.2L500.203 375.103L500.211 375.098L499.772 374.2ZM517.172 362.4L517.833 363.15L518.172 362.852V362.4H517.172ZM517.172 214.6V213.6H516.172V214.6H517.172ZM578.172 214.6V422H580.172V214.6H578.172ZM579.172 421H540.772V423H579.172V421ZM540.772 421C537.054 421 534.065 420.168 531.737 418.575C529.413 416.985 527.661 414.578 526.517 411.273L524.627 411.927C525.883 415.556 527.865 418.349 530.607 420.225C533.345 422.099 536.756 423 540.772 423V421ZM526.53 411.313L522.93 399.313L521.014 399.887L524.614 411.887L526.53 411.313ZM521.277 398.881C517.306 402.72 513.204 406.226 508.972 409.4L510.172 411C514.473 407.774 518.638 404.213 522.667 400.319L521.277 398.881ZM508.988 409.388C504.775 412.416 500.231 415.051 495.354 417.291L496.189 419.109C501.179 416.816 505.835 414.117 510.156 411.012L508.988 409.388ZM495.366 417.286C490.637 419.388 485.439 421.034 479.767 422.221L480.177 424.179C485.971 422.966 491.307 421.279 496.178 419.114L495.366 417.286ZM479.74 422.227C474.227 423.54 468.173 424.2 461.572 424.2V426.2C468.305 426.2 474.517 425.527 480.204 424.173L479.74 422.227ZM461.572 424.2C450.353 424.2 440.427 422.286 431.774 418.484L430.97 420.316C439.917 424.247 450.125 426.2 461.572 426.2V424.2ZM431.791 418.492C423.252 414.551 416.037 409.105 410.134 402.153L408.61 403.447C414.707 410.628 422.158 416.249 430.953 420.308L431.791 418.492ZM410.134 402.153C404.227 395.195 399.754 386.981 396.724 377.496L394.819 378.104C397.923 387.819 402.517 396.271 408.61 403.447L410.134 402.153ZM396.724 377.496C393.693 368.007 392.172 357.577 392.172 346.2H390.172C390.172 357.756 391.717 368.393 394.819 378.104L396.724 377.496ZM392.172 346.2V214.6H390.172V346.2H392.172ZM391.172 215.6H453.172V213.6H391.172V215.6ZM452.172 214.6V346.2H454.172V214.6H452.172ZM452.172 346.2C452.172 356.606 454.536 364.799 459.404 370.64L460.94 369.36C456.474 364.001 454.172 356.327 454.172 346.2H452.172ZM459.404 370.64C464.306 376.523 471.487 379.4 480.772 379.4V377.4C471.923 377.4 465.371 374.677 460.94 369.36L459.404 370.64ZM480.772 379.4C487.714 379.4 494.195 377.97 500.203 375.102L499.341 373.298C493.615 376.03 487.43 377.4 480.772 377.4V379.4ZM500.211 375.098C506.3 372.122 512.174 368.136 517.833 363.15L516.511 361.65C510.97 366.531 505.244 370.412 499.333 373.302L500.211 375.098ZM518.172 362.4V214.6H516.172V362.4H518.172ZM517.172 215.6H579.172V213.6H517.172V215.6ZM818.297 214.6L819.217 214.991L819.807 213.6H818.297V214.6ZM707.497 475.8L708.408 476.212L708.413 476.201L708.417 476.191L707.497 475.8ZM700.697 484.8L700.123 483.981L700.11 483.99L700.097 484L700.697 484.8ZM641.497 487.8L640.594 487.37L639.913 488.8H641.497V487.8ZM681.497 403.8L682.4 404.23L682.596 403.818L682.413 403.399L681.497 403.8ZM598.697 214.6V213.6H597.168L597.781 215.001L598.697 214.6ZM664.497 217.8L663.853 218.565L663.862 218.573L663.872 218.581L664.497 217.8ZM670.297 225.4L671.232 225.045L671.227 225.033L671.222 225.021L670.297 225.4ZM704.297 314.8L703.362 315.155L703.366 315.166L704.297 314.8ZM712.097 339.8L711.123 340.028L711.915 343.406L713.043 340.125L712.097 339.8ZM721.097 314.4L722.029 314.761L722.036 314.744L722.042 314.727L721.097 314.4ZM751.897 225.4L750.966 225.036L750.958 225.054L750.952 225.073L751.897 225.4ZM758.297 217.8L758.843 218.638L758.856 218.629L758.868 218.621L758.297 217.8ZM817.376 214.209L706.576 475.409L708.417 476.191L819.217 214.991L817.376 214.209ZM706.586 475.388C704.765 479.419 702.596 482.25 700.123 483.981L701.27 485.619C704.131 483.617 706.495 480.447 708.408 476.212L706.586 475.388ZM700.097 484C697.692 485.804 693.693 486.8 687.897 486.8V488.8C693.834 488.8 698.368 487.796 701.297 485.6L700.097 484ZM687.897 486.8H641.497V488.8H687.897V486.8ZM642.4 488.23L682.4 404.23L680.594 403.37L640.594 487.37L642.4 488.23ZM682.413 403.399L599.613 214.199L597.781 215.001L680.581 404.201L682.413 403.399ZM598.697 215.6H653.497V213.6H598.697V215.6ZM653.497 215.6C658.165 215.6 661.566 216.639 663.853 218.565L665.141 217.035C662.362 214.694 658.429 213.6 653.497 213.6V215.6ZM663.872 218.581C666.417 220.616 668.241 223.015 669.371 225.779L671.222 225.021C669.953 221.918 667.911 219.25 665.122 217.019L663.872 218.581ZM669.362 225.755L703.362 315.155L705.232 314.445L671.232 225.045L669.362 225.755ZM703.366 315.166C706.549 323.254 709.134 331.542 711.123 340.028L713.07 339.572C711.06 330.992 708.445 322.612 705.227 314.434L703.366 315.166ZM713.043 340.125C714.509 335.858 715.976 331.592 717.443 327.325L715.551 326.675C714.085 330.942 712.618 335.208 711.151 339.475L713.043 340.125ZM717.443 327.325C718.905 323.07 720.434 318.882 722.029 314.761L720.164 314.039C718.56 318.184 717.022 322.396 715.551 326.675L717.443 327.325ZM722.042 314.727L752.842 225.727L750.952 225.073L720.152 314.073L722.042 314.727ZM752.828 225.764C753.944 222.913 755.931 220.537 758.843 218.638L757.751 216.962C754.53 219.063 752.25 221.753 750.966 225.036L752.828 225.764ZM758.868 218.621C761.774 216.599 764.909 215.6 768.297 215.6V213.6C764.485 213.6 760.953 214.734 757.726 216.979L758.868 218.621ZM768.297 215.6H818.297V213.6H768.297V215.6ZM983.731 271V270H982.731V271H983.731ZM1087.33 271H1088.33V270H1087.33V271ZM1087.33 394L1087.92 394.807L1088.33 394.507V394H1087.33ZM1039.53 417.8L1039.25 416.84L1039.25 416.841L1039.53 417.8ZM921.131 414L920.77 414.932L920.777 414.935L921.131 414ZM870.731 382.8L870.042 383.524L870.045 383.528L870.731 382.8ZM838.331 335.6L837.408 335.984L837.409 335.987L838.331 335.6ZM837.731 216.4L838.661 216.769L838.662 216.767L837.731 216.4ZM868.531 169.2L867.831 168.486L867.828 168.489L868.531 169.2ZM917.131 138.4L916.772 137.467L916.77 137.467L917.131 138.4ZM1015.13 130.4L1014.95 131.383L1014.95 131.383L1015.13 130.4ZM1044.53 138.6L1044.17 139.532L1044.17 139.534L1044.53 138.6ZM1069.33 151L1069.87 150.159L1069.33 151ZM1089.33 166.6L1090.17 167.149L1090.63 166.453L1090.02 165.877L1089.33 166.6ZM1069.73 196.4L1068.9 195.85L1068.9 195.851L1069.73 196.4ZM1057.73 205L1057.52 204.023L1057.51 204.024L1057.73 205ZM1042.13 201.4L1042.66 200.55L1042.65 200.542L1042.13 201.4ZM1026.93 193.2L1026.47 194.089L1026.49 194.097L1026.5 194.104L1026.93 193.2ZM1012.53 187.4L1012.82 186.441L1012.82 186.441L1012.53 187.4ZM944.331 190L944.73 190.917L944.74 190.913L944.331 190ZM918.331 208.8L917.582 208.137L917.576 208.144L918.331 208.8ZM901.931 238.2L902.878 238.523L902.879 238.52L901.931 238.2ZM902.531 317.4L903.473 317.065L903.473 317.065L902.531 317.4ZM920.531 347.8L919.801 348.483L919.807 348.489L920.531 347.8ZM948.531 366.8L948.154 367.726L948.161 367.729L948.168 367.732L948.531 366.8ZM1006.73 370.8L1006.5 369.828L1006.49 369.829L1006.73 370.8ZM1026.13 364.4L1026.52 365.32L1027.13 365.061V364.4H1026.13ZM1026.13 320.2H1027.13V319.2H1026.13V320.2ZM983.731 272H1087.33V270H983.731V272ZM1086.33 271V394H1088.33V271H1086.33ZM1086.74 393.193C1071.9 404.061 1056.07 411.941 1039.25 416.84L1039.81 418.76C1056.86 413.793 1072.9 405.806 1087.92 394.807L1086.74 393.193ZM1039.25 416.841C1022.55 421.746 1005.04 424.2 986.731 424.2V426.2C1005.22 426.2 1022.92 423.721 1039.81 418.759L1039.25 416.841ZM986.731 424.2C962.836 424.2 941.091 420.483 921.485 413.065L920.777 414.935C940.638 422.45 962.627 426.2 986.731 426.2V424.2ZM921.493 413.068C902.002 405.51 885.315 395.176 871.417 382.072L870.045 383.528C884.148 396.824 901.061 407.29 920.77 414.932L921.493 413.068ZM871.421 382.076C857.523 368.839 846.801 353.222 839.254 335.213L837.409 335.987C845.061 354.245 855.94 370.094 870.042 383.524L871.421 382.076ZM839.255 335.216C831.709 317.08 827.931 297.412 827.931 276.2H825.931C825.931 297.655 829.753 317.586 837.408 335.984L839.255 335.216ZM827.931 276.2C827.931 254.579 831.512 234.772 838.661 216.769L836.802 216.031C829.55 234.294 825.931 254.355 825.931 276.2H827.931ZM838.662 216.767C845.813 198.623 856.005 183.008 869.235 169.911L867.828 168.489C854.391 181.792 844.049 197.644 836.801 216.033L838.662 216.767ZM869.231 169.914C882.594 156.816 898.676 146.621 917.492 139.332L916.77 137.467C897.72 144.846 881.402 155.184 867.831 168.486L869.231 169.914ZM917.49 139.333C936.427 132.05 957.569 128.4 980.931 128.4V126.4C957.36 126.4 935.969 130.083 916.772 137.467L917.49 139.333ZM980.931 128.4C993.01 128.4 1004.35 129.395 1014.95 131.383L1015.32 129.417C1004.58 127.404 993.119 126.4 980.931 126.4V128.4ZM1014.95 131.383C1025.56 133.373 1035.3 136.091 1044.17 139.532L1044.89 137.668C1035.9 134.176 1026.03 131.427 1015.32 129.417L1014.95 131.383ZM1044.17 139.534C1053.18 142.978 1061.39 147.082 1068.79 151.841L1069.87 150.159C1062.34 145.318 1054.01 141.155 1044.89 137.666L1044.17 139.534ZM1068.79 151.841C1076.21 156.61 1082.82 161.771 1088.64 167.323L1090.02 165.877C1084.1 160.229 1077.39 154.99 1069.87 150.159L1068.79 151.841ZM1088.5 166.05L1068.9 195.85L1070.57 196.95L1090.17 167.149L1088.5 166.05ZM1068.9 195.851C1065.96 200.324 1062.17 203.017 1057.52 204.023L1057.94 205.977C1063.16 204.849 1067.37 201.809 1070.57 196.949L1068.9 195.851ZM1057.51 204.024C1053.05 205.017 1048.11 203.927 1042.66 200.55L1041.6 202.25C1047.35 205.806 1052.82 207.117 1057.95 205.976L1057.51 204.024ZM1042.65 200.542C1037.29 197.328 1032.19 194.579 1027.36 192.296L1026.5 194.104C1031.27 196.355 1036.31 199.072 1041.62 202.257L1042.65 200.542ZM1027.39 192.311C1022.67 189.883 1017.81 187.926 1012.82 186.441L1012.25 188.359C1017.12 189.807 1021.86 191.717 1026.47 194.089L1027.39 192.311ZM1012.82 186.441C1007.83 184.958 1002.57 183.88 997.052 183.207L996.81 185.193C1002.23 185.853 1007.37 186.909 1012.25 188.359L1012.82 186.441ZM997.052 183.207C991.537 182.535 985.363 182.2 978.531 182.2V184.2C985.3 184.2 991.392 184.532 996.81 185.193L997.052 183.207ZM978.531 182.2C965.744 182.2 954.202 184.489 943.923 189.087L944.74 190.913C954.728 186.445 965.986 184.2 978.531 184.2V182.2ZM943.933 189.083C933.668 193.54 924.881 199.893 917.582 208.137L919.08 209.463C926.181 201.441 934.728 195.26 944.73 190.917L943.933 189.083ZM917.576 208.144C910.414 216.387 904.887 226.305 900.984 237.88L902.879 238.52C906.709 227.161 912.115 217.479 919.086 209.456L917.576 208.144ZM900.985 237.877C897.077 249.33 895.131 262.108 895.131 276.2H897.131C897.131 262.292 899.052 249.736 902.878 238.523L900.985 237.877ZM895.131 276.2C895.131 291.757 897.277 305.607 901.589 317.735L903.473 317.065C899.252 305.193 897.131 291.576 897.131 276.2H895.131ZM901.589 317.735C905.896 329.848 911.963 340.104 919.801 348.483L921.262 347.117C913.633 338.962 907.7 328.952 903.473 317.065L901.589 317.735ZM919.807 348.489C927.773 356.861 937.226 363.274 948.154 367.726L948.909 365.874C938.237 361.526 929.023 355.272 921.256 347.111L919.807 348.489ZM948.168 367.732C959.23 372.049 971.422 374.2 984.731 374.2V372.2C971.64 372.2 959.699 370.085 948.895 365.868L948.168 367.732ZM984.731 374.2C992.929 374.2 1000.34 373.394 1006.97 371.771L1006.49 369.829C1000.05 371.406 992.801 372.2 984.731 372.2V374.2ZM1006.96 371.772C1013.69 370.159 1020.2 368.009 1026.52 365.32L1025.74 363.48C1019.52 366.125 1013.11 368.241 1006.5 369.828L1006.96 371.772ZM1027.13 364.4V320.2H1025.13V364.4H1027.13ZM1026.13 319.2H997.331V321.2H1026.13V319.2ZM997.331 319.2C993.243 319.2 990.183 318.118 988.018 316.073L986.645 317.527C989.28 320.016 992.887 321.2 997.331 321.2V319.2ZM988.018 316.073C985.829 314.006 984.731 311.407 984.731 308.2H982.731C982.731 311.926 984.034 315.061 986.645 317.527L988.018 316.073ZM984.731 308.2V271H982.731V308.2H984.731ZM1261.85 218.8L1261.49 219.734L1261.49 219.734L1261.85 218.8ZM1295.05 240L1294.34 240.707L1294.35 240.712L1295.05 240ZM1316.65 273.6L1315.72 273.958L1315.72 273.97L1316.65 273.6ZM1316.65 362.6L1315.72 362.237L1315.72 362.242L1316.65 362.6ZM1295.05 396.4L1295.76 397.107L1295.76 397.107L1295.05 396.4ZM1261.85 417.8L1262.21 418.734L1262.21 418.731L1261.85 417.8ZM1175.45 417.8L1175.09 418.731L1175.1 418.736L1175.45 417.8ZM1141.85 396.4L1141.14 397.107L1141.15 397.112L1141.15 397.117L1141.85 396.4ZM1120.05 362.6L1119.12 362.955L1119.12 362.967L1120.05 362.6ZM1120.05 273.6L1119.12 273.233L1119.12 273.238L1120.05 273.6ZM1141.85 240L1141.15 239.283L1141.15 239.288L1141.85 240ZM1175.45 218.8L1175.1 217.864L1175.09 217.866L1175.45 218.8ZM1250.25 364.2L1249.42 363.643L1249.42 363.645L1250.25 364.2ZM1250.25 272.4L1249.42 272.955L1249.42 272.962L1250.25 272.4ZM1186.65 364.2L1185.82 364.757L1185.82 364.762L1186.65 364.2ZM1218.85 212.4C1234.48 212.4 1248.69 214.85 1261.49 219.734L1262.21 217.866C1249.14 212.883 1234.69 210.4 1218.85 210.4V212.4ZM1261.49 219.734C1274.3 224.621 1285.25 231.613 1294.34 240.707L1295.76 239.293C1286.45 229.987 1275.26 222.846 1262.21 217.866L1261.49 219.734ZM1294.35 240.712C1303.57 249.804 1310.7 260.881 1315.72 273.958L1317.58 273.242C1312.47 259.919 1305.19 248.596 1295.75 239.288L1294.35 240.712ZM1315.72 273.97C1320.87 286.901 1323.45 301.506 1323.45 317.8H1325.45C1325.45 301.294 1322.83 286.432 1317.58 273.23L1315.72 273.97ZM1323.45 317.8C1323.45 334.228 1320.87 349.036 1315.72 362.237L1317.58 362.963C1322.83 349.498 1325.45 334.439 1325.45 317.8H1323.45ZM1315.72 362.242C1310.7 375.32 1303.57 386.466 1294.34 395.693L1295.76 397.107C1305.2 387.668 1312.47 376.28 1317.58 362.958L1315.72 362.242ZM1294.34 395.693C1285.25 404.789 1274.3 411.849 1261.49 416.869L1262.21 418.731C1275.27 413.618 1286.45 406.411 1295.76 397.107L1294.34 395.693ZM1261.49 416.866C1248.69 421.75 1234.48 424.2 1218.85 424.2V426.2C1234.69 426.2 1249.14 423.717 1262.21 418.734L1261.49 416.866ZM1218.85 424.2C1203.09 424.2 1188.74 421.75 1175.8 416.864L1175.1 418.736C1188.29 423.717 1202.88 426.2 1218.85 426.2V424.2ZM1175.81 416.869C1163 411.848 1151.91 404.785 1142.55 395.683L1141.15 397.117C1150.72 406.415 1162.03 413.618 1175.09 418.731L1175.81 416.869ZM1142.56 395.693C1133.33 386.464 1126.13 375.316 1120.98 362.233L1119.12 362.967C1124.37 376.284 1131.71 387.67 1141.14 397.107L1142.56 395.693ZM1120.98 362.245C1115.97 349.041 1113.45 334.231 1113.45 317.8H1111.45C1111.45 334.436 1114 349.492 1119.12 362.955L1120.98 362.245ZM1113.45 317.8C1113.45 301.503 1115.97 286.895 1120.98 273.962L1119.12 273.238C1114 286.438 1111.45 301.297 1111.45 317.8H1113.45ZM1120.98 273.967C1126.13 260.886 1133.33 249.806 1142.55 240.712L1141.15 239.288C1131.71 248.594 1124.37 259.914 1119.12 273.233L1120.98 273.967ZM1142.55 240.717C1151.91 231.617 1162.99 224.622 1175.81 219.734L1175.09 217.866C1162.04 222.845 1150.72 229.983 1141.15 239.283L1142.55 240.717ZM1175.8 219.736C1188.74 214.85 1203.09 212.4 1218.85 212.4V210.4C1202.88 210.4 1188.29 212.883 1175.1 217.864L1175.8 219.736ZM1218.85 380.2C1233.38 380.2 1244.19 375.088 1251.08 364.755L1249.42 363.645C1242.97 373.312 1232.85 378.2 1218.85 378.2V380.2ZM1251.08 364.757C1258.04 354.381 1261.45 338.81 1261.45 318.2H1259.45C1259.45 338.656 1256.06 353.752 1249.42 363.643L1251.08 364.757ZM1261.45 318.2C1261.45 297.591 1258.04 282.083 1251.08 271.838L1249.42 272.962C1256.06 282.717 1259.45 297.742 1259.45 318.2H1261.45ZM1251.08 271.845C1244.19 261.512 1233.38 256.4 1218.85 256.4V258.4C1232.85 258.4 1242.97 263.288 1249.42 272.955L1251.08 271.845ZM1218.85 256.4C1203.93 256.4 1192.85 261.504 1185.82 271.838L1187.48 272.962C1194.05 263.296 1204.43 258.4 1218.85 258.4V256.4ZM1185.82 271.838C1178.86 282.083 1175.45 297.591 1175.45 318.2H1177.45C1177.45 297.742 1180.84 282.717 1187.48 272.962L1185.82 271.838ZM1175.45 318.2C1175.45 338.81 1178.86 354.381 1185.82 364.757L1187.48 363.643C1180.84 353.752 1177.45 338.656 1177.45 318.2H1175.45ZM1185.82 364.762C1192.85 375.096 1203.93 380.2 1218.85 380.2V378.2C1204.43 378.2 1194.05 373.304 1187.48 363.638L1185.82 364.762Z" fill="black" mask="url(#path-5-outside-1_1_51)"/>
</g>
<defs>
<filter id="filter0_d_1_51" x="310" y="0" width="401" height="222" filterUnits="userSpaceOnUse" color-interpolation-filters="sRGB">
<feFlood flood-opacity="0" result="BackgroundImageFix"/>
<feColorMatrix in="SourceAlpha" type="matrix" values="0 0 0 0 0 0 0 0 0 0 0 0 0 0 0 0 0 0 127 0" result="hardAlpha"/>
<feOffset dy="4"/>
<feGaussianBlur stdDeviation="2"/>
<feComposite in2="hardAlpha" operator="out"/>
<feColorMatrix type="matrix" values="0 0 0 0 0 0 0 0 0 0 0 0 0 0 0 0 0 0 0.25 0"/>
<feBlend mode="normal" in2="BackgroundImageFix" result="effect1_dropShadow_1_51"/>
<feBlend mode="normal" in="SourceGraphic" in2="effect1_dropShadow_1_51" result="shape"/>
</filter>
<filter id="filter1_d_1_51" x="1345" y="181" width="174" height="243" filterUnits="userSpaceOnUse" color-interpolation-filters="sRGB">
<feFlood flood-opacity="0" result="BackgroundImageFix"/>
<feColorMatrix in="SourceAlpha" type="matrix" values="0 0 0 0 0 0 0 0 0 0 0 0 0 0 0 0 0 0 127 0" result="hardAlpha"/>
<feOffset dy="4"/>
<feGaussianBlur stdDeviation="2"/>
<feComposite in2="hardAlpha" operator="out"/>
<feColorMatrix type="matrix" values="0 0 0 0 0 0 0 0 0 0 0 0 0 0 0 0 0 0 0.25 0"/>
<feBlend mode="normal" in2="BackgroundImageFix" result="effect1_dropShadow_1_51"/>
<feBlend mode="normal" in="SourceGraphic" in2="effect1_dropShadow_1_51" result="shape"/>
</filter>
<clipPath id="clip0_1_51">
<rect width="1611" height="561" fill="white"/>
</clipPath>
</defs>
</svg>
